<svg xmlns="http://www.w3.org/2000/svg" xmlns:xlink="http://www.w3.org/1999/xlink" viewBox="0,0,256,256" width="128px" height="128px"><g fill="#22f700" fill-rule="nonzero" stroke="none" stroke-width="1" stroke-linecap="butt" stroke-linejoin="miter" stroke-miterlimit="10" stroke-dasharray="" stroke-dashoffset="0" font-family="none" font-weight="none" font-size="none" text-anchor="none" style="mix-blend-mode: normal"><g transform="scale(4,4)"><path d="M7.01953,4c-1.78906,0 -3.21392,1.58909 -2.99805,3.36523l5.4668,45.24414c0.24235,2.00251 1.67371,3.66806 3.61914,4.2207l17.53516,4.97852c0.88309,0.25035 1.81944,0.25622 2.70703,0.01563l18.44141,-4.99609c2.00844,-0.5438 3.48215,-2.2704 3.68945,-4.33594l4.54883,-45.1875c0.17705,-1.75712 -1.23764,-3.30469 -3.00391,-3.30469zM7.01953,6h50.00586c0.62373,0 1.07462,0.50059 1.01367,1.10547l-0.14453,1.43555c-0.17137,-0.34463 -0.52531,-0.56033 -0.91016,-0.55469c-0.55152,0.00862 -0.99193,0.46214 -0.98437,1.01367v2c-0.00481,0.37279 0.19813,0.71732 0.52653,0.89383c0.32839,0.17651 0.72771,0.1557 1.03597,-0.05398l-4.07227,40.45117c0,0.00065 0,0.0013 0,0.00195c-0.1247,1.24246 -1.00115,2.27527 -2.2207,2.60547c-0.00065,0 -0.0013,0 -0.00195,0l-18.44141,4.99609c-0.53641,0.1454 -1.10181,0.14192 -1.63672,-0.00977l-17.53516,-4.97852c-1.18056,-0.33536 -2.03404,-1.33362 -2.17969,-2.53711l-4.88672,-40.44531c0.31155,0.14089 0.67348,0.11285 0.95961,-0.07434c0.28613,-0.18719 0.4568,-0.50759 0.4525,-0.84948v-2c0.0037,-0.2703 -0.10218,-0.53059 -0.29351,-0.72155c-0.19133,-0.19097 -0.45182,-0.29634 -0.72212,-0.29212c-0.33023,0.00543 -0.63648,0.17354 -0.81836,0.44922l-0.1582,-1.31055c0,-0.00065 0,-0.0013 0,-0.00195c-0.07412,-0.60986 0.38078,-1.12305 1.01172,-1.12305zM11.98438,7.98633c-0.55152,0.00862 -0.99193,0.46214 -0.98437,1.01367v2c-0.0051,0.36064 0.18438,0.69608 0.49587,0.87789c0.3115,0.18181 0.69676,0.18181 1.00825,0c0.3115,-0.18181 0.50097,-0.51725 0.49587,-0.87789v-2c0.0037,-0.2703 -0.10218,-0.53059 -0.29351,-0.72155c-0.19133,-0.19097 -0.45182,-0.29634 -0.72212,-0.29212zM16.98438,7.98633c-0.55152,0.00862 -0.99193,0.46214 -0.98437,1.01367v2c-0.0051,0.36064 0.18438,0.69608 0.49587,0.87789c0.3115,0.18181 0.69676,0.18181 1.00825,0c0.3115,-0.18181 0.50097,-0.51725 0.49587,-0.87789v-2c0.0037,-0.2703 -0.10218,-0.53059 -0.29351,-0.72155c-0.19133,-0.19097 -0.45182,-0.29634 -0.72212,-0.29212zM21.98438,7.98633c-0.55152,0.00862 -0.99193,0.46214 -0.98437,1.01367v2c-0.0051,0.36064 0.18438,0.69608 0.49587,0.87789c0.3115,0.18181 0.69676,0.18181 1.00825,0c0.3115,-0.18181 0.50097,-0.51725 0.49587,-0.87789v-2c0.0037,-0.2703 -0.10218,-0.53059 -0.29351,-0.72155c-0.19133,-0.19097 -0.45182,-0.29634 -0.72212,-0.29212zM26.98438,7.98633c-0.55152,0.00862 -0.99193,0.46214 -0.98437,1.01367v2c-0.0051,0.36064 0.18438,0.69608 0.49587,0.87789c0.3115,0.18181 0.69676,0.18181 1.00825,0c0.3115,-0.18181 0.50097,-0.51725 0.49587,-0.87789v-2c0.0037,-0.2703 -0.10218,-0.53059 -0.29351,-0.72155c-0.19133,-0.19097 -0.45182,-0.29634 -0.72212,-0.29212zM31.98438,7.98633c-0.55152,0.00862 -0.99193,0.46214 -0.98437,1.01367v2c-0.0051,0.36064 0.18438,0.69608 0.49587,0.87789c0.3115,0.18181 0.69676,0.18181 1.00825,0c0.3115,-0.18181 0.50097,-0.51725 0.49587,-0.87789v-2c0.0037,-0.2703 -0.10218,-0.53059 -0.29351,-0.72155c-0.19133,-0.19097 -0.45182,-0.29634 -0.72212,-0.29212zM36.98438,7.98633c-0.55152,0.00862 -0.99193,0.46214 -0.98437,1.01367v2c-0.0051,0.36064 0.18438,0.69608 0.49587,0.87789c0.3115,0.18181 0.69676,0.18181 1.00825,0c0.3115,-0.18181 0.50097,-0.51725 0.49587,-0.87789v-2c0.0037,-0.2703 -0.10218,-0.53059 -0.29351,-0.72155c-0.19133,-0.19097 -0.45182,-0.29634 -0.72212,-0.29212zM41.98438,7.98633c-0.55152,0.00862 -0.99193,0.46214 -0.98437,1.01367v2c-0.0051,0.36064 0.18438,0.69608 0.49587,0.87789c0.3115,0.18181 0.69676,0.18181 1.00825,0c0.3115,-0.18181 0.50097,-0.51725 0.49587,-0.87789v-2c0.0037,-0.2703 -0.10218,-0.53059 -0.29351,-0.72155c-0.19133,-0.19097 -0.45182,-0.29634 -0.72212,-0.29212zM46.98438,7.98633c-0.55152,0.00862 -0.99193,0.46214 -0.98437,1.01367v2c-0.0051,0.36064 0.18438,0.69608 0.49587,0.87789c0.3115,0.18181 0.69676,0.18181 1.00825,0c0.3115,-0.18181 0.50097,-0.51725 0.49587,-0.87789v-2c0.0037,-0.2703 -0.10218,-0.53059 -0.29351,-0.72155c-0.19133,-0.19097 -0.45182,-0.29634 -0.72212,-0.29212zM51.98438,7.98633c-0.55152,0.00862 -0.99193,0.46214 -0.98437,1.01367v2c-0.0051,0.36064 0.18438,0.69608 0.49587,0.87789c0.3115,0.18181 0.69676,0.18181 1.00825,0c0.3115,-0.18181 0.50097,-0.51725 0.49587,-0.87789v-2c0.0037,-0.2703 -0.10218,-0.53059 -0.29351,-0.72155c-0.19133,-0.19097 -0.45182,-0.29634 -0.72212,-0.29212zM24,18c-0.55226,0.00006 -0.99994,0.44774 -1,1v23.75391c-2.59459,-0.57666 -5.18892,-1.15367 -7.7832,-1.73047c-0.3135,-0.06935 -0.64124,0.01603 -0.88104,0.22954c-0.23981,0.21351 -0.36252,0.52917 -0.32989,0.84858l0.61524,6c0.04189,0.40689 0.32733,0.74725 0.7207,0.85938c4.4621,1.27203 8.92286,2.54443 13.38477,3.81641c0.30177,0.08574 0.62629,0.02491 0.87653,-0.1643c0.25023,-0.18921 0.39718,-0.48488 0.39691,-0.79859v-32.81445c-0.00006,-0.55226 -0.44774,-0.99994 -1,-1zM35,18c-0.55226,0.00006 -0.99994,0.44774 -1,1v22c-0.00001,0.30471 0.1389,0.59281 0.37732,0.78256c0.23842,0.18975 0.55035,0.26045 0.84729,0.19205c2.5445,-0.58791 5.08846,-1.17641 7.63281,-1.76367l-0.17773,2.67578c-2.6466,0.71513 -5.29415,1.43257 -7.94141,2.14844c-0.43562,0.11816 -0.73811,0.51348 -0.73828,0.96484v6c0.00017,0.31383 0.14763,0.60938 0.39828,0.79823c0.25065,0.18885 0.57541,0.24909 0.87711,0.16271c4.24386,-1.21896 8.48828,-2.43721 12.73242,-3.65625c0.3983,-0.11421 0.68492,-0.4622 0.7207,-0.875l1.33008,-15.46094c0.02581,-0.30049 -0.08537,-0.59659 -0.30258,-0.80583c-0.21721,-0.20925 -0.51724,-0.3093 -0.81657,-0.27229c-2.64591,0.32592 -5.29299,0.65244 -7.93945,0.97852v-7.86328c2.93856,0.01436 5.87768,0.02861 8.81641,0.04297c0.52037,0.00188 0.95524,-0.39561 1,-0.91406l0.43555,-5.04883c0.02404,-0.27908 -0.07006,-0.55545 -0.2594,-0.76187c-0.18935,-0.20642 -0.45658,-0.32398 -0.73669,-0.32407zM25,20h3v30.49023c-3.81993,-1.08886 -7.63912,-2.17674 -11.45898,-3.26562l-0.40625,-3.94727c2.54957,0.56664 5.09916,1.13243 7.64844,1.69922c0.29614,0.06573 0.6061,-0.00651 0.84267,-0.19637c0.23657,-0.18987 0.37419,-0.47685 0.37412,-0.78019zM36,20h13.16602l-0.26172,3.04492c-2.9665,-0.0145 -5.93178,-0.03042 -8.89844,-0.04492c-0.26622,-0.00153 -0.52207,0.10314 -0.71087,0.29084c-0.1888,0.1877 -0.29497,0.44293 -0.29499,0.70916v10c0.00009,0.28661 0.12315,0.55941 0.33794,0.74917c0.21479,0.18976 0.50067,0.27825 0.78511,0.24302c2.61354,-0.32183 5.2253,-0.64481 7.83789,-0.9668l-1.16602,13.54688c-3.59857,1.03353 -7.19615,2.06609 -10.79492,3.09961v-3.90625c2.63085,-0.71143 5.26081,-1.42232 7.89063,-2.13281c0.41204,-0.11164 0.70779,-0.4725 0.73633,-0.89844l0.31641,-4.73437c0.02104,-0.31575 -0.10859,-0.62283 -0.34954,-0.82798c-0.24094,-0.20515 -0.56476,-0.28416 -0.87312,-0.21304c-2.57392,0.59385 -5.14694,1.18854 -7.7207,1.7832z"></path></g></g></svg>